<svg xmlns="http://www.w3.org/2000/svg" xmlns:xlink="http://www.w3.org/1999/xlink" viewBox="0 0 67.1 61.01"><defs><style>.cls-1{fill:none;stroke:#f2f2f2;stroke-miterlimit:10;stroke-width:1.71px;}</style></defs><title>County Website</title><g id="Layer_2" data-name="Layer 2"><g id="Design2"><path class="cls-1" d="M60.26.86A5.86,5.86,0,0,1,64.44,2.6a5.53,5.53,0,0,1,1.81,4.1V42.34a6.19,6.19,0,0,1-6,6H39.53v6h5.85v5.85H21.73V54.31h5.84v-6H6.84a5.7,5.7,0,0,1-4.17-1.81A5.7,5.7,0,0,1,.86,42.34V6.7A5.5,5.5,0,0,1,2.67,2.6,5.82,5.82,0,0,1,6.84.86Zm0,41.48V6.7H6.84V42.34Z"/><image width="1399" height="880" transform="translate(16.63 13.66) scale(0.02)" xlink:href="../../../Popular Mark (white on transparent).png"/></g></g></svg>