<svg xmlns="http://www.w3.org/2000/svg" viewBox="0 0 64.59 50.3"><defs><style>.cls-1{fill:none;stroke:#fff;stroke-miterlimit:10;stroke-width:1.71px;}</style></defs><title>E-Forms</title><g id="Layer_2" data-name="Layer 2"><g id="Design2"><path class="cls-1" d="M58,.86A5.5,5.5,0,0,1,62,2.6a5.52,5.52,0,0,1,1.74,4V43.69A6,6,0,0,1,58,49.44H6.61a5.48,5.48,0,0,1-4-1.74,5.48,5.48,0,0,1-1.74-4V6.61a5.52,5.52,0,0,1,1.74-4,5.48,5.48,0,0,1,4-1.74Zm0,42.83V6.61H32.3V43.69Zm-22.88-27H55.17v4.28H35.1Zm0,7.09H55.17V28H35.1Zm0,7.1H55.17v4.28H35.1Z"/></g></g></svg>