<svg xmlns="http://www.w3.org/2000/svg" viewBox="0 0 55.74 58.01"><defs><style>.cls-1{fill:#fff;}</style></defs><title>Internet</title><g id="Layer_2" data-name="Layer 2"><g id="Design2"><path class="cls-1" d="M27.87,58C12.5,58,0,45,0,29S12.5,0,27.87,0,55.74,13,55.74,29,43.24,58,27.87,58Zm0-55.92C13.66,2.09,2.09,14.16,2.09,29S13.66,55.92,27.87,55.92,53.65,43.84,53.65,29,42.09,2.09,27.87,2.09Z"/><path class="cls-1" d="M26.62,57.57c-.17-.26-.32-.46-.44-.67a50.35,50.35,0,0,1-.56-55.65A6.15,6.15,0,0,1,26.18.4l1.64,1.29a4.58,4.58,0,0,0-.41.64A48.27,48.27,0,0,0,28,55.79a5,5,0,0,0,.34.51Z"/><path class="cls-1" d="M27.57,57.54l-1.69-1.23c.11-.16.21-.29.3-.45a48.18,48.18,0,0,0,8.3-27.09A48.24,48.24,0,0,0,26.63,2.36a5.2,5.2,0,0,0-.45-.67L27.82.4a6.36,6.36,0,0,1,.59.87,50.26,50.26,0,0,1,8.16,27.5A50.18,50.18,0,0,1,28,57,6.19,6.19,0,0,1,27.57,57.54Z"/><rect class="cls-1" x="1.92" y="19.68" width="51.25" height="2.09"/><rect class="cls-1" x="2.79" y="37.63" width="50.34" height="2.09"/></g></g></svg>