<svg xmlns="http://www.w3.org/2000/svg" viewBox="0 0 69 48.65"><defs><style>.cls-1{fill:#fff;}</style></defs><title>My Health Agency</title><g id="Layer_2" data-name="Layer 2"><g id="Design2"><path class="cls-1" d="M26.75,39.85,29.84,25.5a14.9,14.9,0,0,0,.43-3.23,3.56,3.56,0,0,0-.9-2.59,3.73,3.73,0,0,0-2.79-.94,7.65,7.65,0,0,0-4.36,1.39A11.26,11.26,0,0,0,18.77,24,21.72,21.72,0,0,0,16.63,30l-2.12,9.89h-2L19.36,7.59h2l-1.79,8.52C19,18.88,18.51,20.8,18.2,21.9h.13a11.9,11.9,0,0,1,3.86-3.64A9.35,9.35,0,0,1,27,17a5.51,5.51,0,0,1,4,1.35,5,5,0,0,1,1.41,3.79,18.93,18.93,0,0,1-.49,3.78l-3.07,14Z"/><path class="cls-1" d="M48.18,17c3.21,0,5.14,1.52,5.79,4.54h.12l1.23-4.19H57L52.23,39.85h-1.7l.93-5.68h-.12a15.2,15.2,0,0,1-3.88,4.52,8.08,8.08,0,0,1-4.92,1.58q-5.82,0-5.82-7.76a20.06,20.06,0,0,1,1.55-7.79A13.9,13.9,0,0,1,42.43,19,9.21,9.21,0,0,1,48.18,17ZM43,38.4a6.36,6.36,0,0,0,3.68-1.29A13.11,13.11,0,0,0,50,33.67a16.84,16.84,0,0,0,2.23-4.77A16.15,16.15,0,0,0,53,24.49a7.63,7.63,0,0,0-.54-2.94,4.66,4.66,0,0,0-1.59-2.05,4.44,4.44,0,0,0-2.63-.76,7.11,7.11,0,0,0-4.65,1.71,12.18,12.18,0,0,0-3.4,5.09,18.42,18.42,0,0,0-1.33,6.74,8.23,8.23,0,0,0,1,4.64A3.56,3.56,0,0,0,43,38.4Z"/><path class="cls-1" d="M58.38,1.5a9.13,9.13,0,0,1,9.12,9.12V38a9.13,9.13,0,0,1-9.12,9.11H10.62A9.13,9.13,0,0,1,1.5,38V10.62A9.13,9.13,0,0,1,10.62,1.5H58.38m0-1.5H10.62A10.65,10.65,0,0,0,0,10.62V38A10.64,10.64,0,0,0,10.62,48.65H58.38A10.64,10.64,0,0,0,69,38V10.62A10.65,10.65,0,0,0,58.38,0Z"/></g></g></svg>