<svg xmlns="http://www.w3.org/2000/svg" viewBox="0 0 58.05 46.97"><defs><style>.cls-1{fill:none;stroke:#fff;stroke-miterlimit:10;stroke-width:1.71px;}</style></defs><title>Outlook</title><g id="Layer_2" data-name="Layer 2"><g id="Design2"><path class="cls-1" d="M51.64.86a5.22,5.22,0,0,1,3.9,1.72,5.52,5.52,0,0,1,1.66,4V40.42a5.52,5.52,0,0,1-1.66,4,5.22,5.22,0,0,1-3.9,1.72H6.41a5.22,5.22,0,0,1-3.9-1.72,5.55,5.55,0,0,1-1.65-4V6.55a5.55,5.55,0,0,1,1.65-4A5.22,5.22,0,0,1,6.41.86Zm0,11.38V6.55L29,20.71,6.41,6.55v5.69L29,26.26Z"/></g></g></svg>