<svg xmlns="http://www.w3.org/2000/svg" viewBox="0 0 87.61 50.01"><defs><style>.cls-1{fill:#fff;}</style></defs><title>People  </title><g id="Layer_2" data-name="Layer 2"><g id="Design2"><path class="cls-1" d="M30.81,14.28a11.29,11.29,0,0,0-2.36-3.52,10.28,10.28,0,0,0-7.59-3.23,10.28,10.28,0,0,0-7.6,3.23,10.61,10.61,0,0,0-3.15,7.64A10.43,10.43,0,0,0,13.26,26a10.43,10.43,0,0,0,7.6,3.16A10.42,10.42,0,0,0,28.45,26,10.43,10.43,0,0,0,31.6,18.4,10.68,10.68,0,0,0,30.81,14.28ZM27.38,24.92a8.83,8.83,0,0,1-6.52,2.72,8.84,8.84,0,0,1-6.53-2.72,8.79,8.79,0,0,1-2.71-6.52,9,9,0,0,1,2.71-6.59A8.76,8.76,0,0,1,20.86,9a8.72,8.72,0,0,1,3.53.7,9.35,9.35,0,0,1,3,2.08A9,9,0,0,1,30.1,18.4,8.8,8.8,0,0,1,27.38,24.92ZM41,40.63l-.22-.4H39a5.38,5.38,0,0,1,.74,1.09l.21.41h1.56A6,6,0,0,0,41,40.63ZM23.41,32.81a4.23,4.23,0,0,0-.25.47l-.45,1,1.06.12a4.87,4.87,0,0,1,.55.06c.06-.17.13-.33.2-.49L25,33l-1.06-.11Z"/><path class="cls-1" d="M53.38,6.75A11,11,0,0,0,51,3.23a10.53,10.53,0,0,0-15.18,0,10.58,10.58,0,0,0-3.16,7.64,10.43,10.43,0,0,0,3.16,7.6,10.72,10.72,0,0,0,15.18,0,10.46,10.46,0,0,0,3.15-7.6A10.68,10.68,0,0,0,53.38,6.75ZM50,17.4a9.21,9.21,0,0,1-13.05,0,8.86,8.86,0,0,1-2.71-6.53A9.08,9.08,0,0,1,36.9,4.28,9.17,9.17,0,0,1,47,2.2a9.35,9.35,0,0,1,3,2.08,9,9,0,0,1,2.72,6.59A8.84,8.84,0,0,1,50,17.4ZM64,34.19a5.37,5.37,0,0,0-.22-.59c-.9-2.25-3.22-4.14-6.89-5.61a36.44,36.44,0,0,0-13.5-2.82A36.45,36.45,0,0,0,29.92,28c-3.23,1.3-5.41,2.92-6.51,4.82a4.23,4.23,0,0,0-.25.47l-.45,1,1.06.12a4.87,4.87,0,0,1,.55.06,37.05,37.05,0,0,1,9.48,2.5A12.92,12.92,0,0,1,39,40.23a5.38,5.38,0,0,1,.74,1.09l.21.41H48.1l.22-.32a6.43,6.43,0,0,1,1.06-1.18H40.81c-1.11-1.86-3.28-3.44-6.45-4.71A39.68,39.68,0,0,0,25.09,33a12.48,12.48,0,0,1,5.39-3.6,34.94,34.94,0,0,1,13-2.71,35,35,0,0,1,13,2.71c3,1.23,5,2.7,5.88,4.4a4.48,4.48,0,0,1,.33.83v0a3.75,3.75,0,0,1,.13.6l.67-.09.83-.08A4.9,4.9,0,0,0,64,34.19Z"/><path class="cls-1" d="M76.71,15a11.15,11.15,0,0,0-2.37-3.52,10.53,10.53,0,0,0-15.18,0A10.61,10.61,0,0,0,56,19.15,10.75,10.75,0,0,0,66.75,29.9a10.42,10.42,0,0,0,7.59-3.15,10.46,10.46,0,0,0,3.16-7.6A10.87,10.87,0,0,0,76.71,15ZM73.27,25.68a9.2,9.2,0,0,1-13,0,8.84,8.84,0,0,1-2.72-6.53,9,9,0,0,1,2.72-6.59,9.17,9.17,0,0,1,10.06-2.08,9.31,9.31,0,0,1,3,2.08A9,9,0,0,1,76,19.15,8.84,8.84,0,0,1,73.27,25.68Zm12.49,14a15.22,15.22,0,0,0-5.5-3.46,36.49,36.49,0,0,0-13.51-2.82,29,29,0,0,0-2.93.15l-.59.06-1,.13a39.11,39.11,0,0,0-9,2.48,14,14,0,0,0-5.92,4c-.09.1-.16.21-.24.31a6.49,6.49,0,0,0-.68,1.19,6.14,6.14,0,0,0-.51,2.47V50H87.61V44.2A6.43,6.43,0,0,0,85.76,39.73Zm.34,8.78H47.4V44.2a4.62,4.62,0,0,1,.7-2.47l.22-.32a6.43,6.43,0,0,1,1.06-1.18,15.1,15.1,0,0,1,4.42-2.56,37.73,37.73,0,0,1,8.93-2.43l.67-.09.83-.08c.84-.07,1.69-.11,2.52-.11a30.39,30.39,0,0,1,6.33.68,39.63,39.63,0,0,1,6.62,2c4.25,1.71,6.4,3.91,6.4,6.53Z"/><path class="cls-1" d="M30.81,14.28a11.29,11.29,0,0,0-2.36-3.52,10.28,10.28,0,0,0-7.59-3.23,10.28,10.28,0,0,0-7.6,3.23,10.61,10.61,0,0,0-3.15,7.64A10.43,10.43,0,0,0,13.26,26a10.43,10.43,0,0,0,7.6,3.16A10.42,10.42,0,0,0,28.45,26,10.43,10.43,0,0,0,31.6,18.4,10.68,10.68,0,0,0,30.81,14.28ZM27.38,24.92a8.83,8.83,0,0,1-6.52,2.72,8.84,8.84,0,0,1-6.53-2.72,8.79,8.79,0,0,1-2.71-6.52,9,9,0,0,1,2.71-6.59A8.76,8.76,0,0,1,20.86,9a8.72,8.72,0,0,1,3.53.7,9.35,9.35,0,0,1,3,2.08A9,9,0,0,1,30.1,18.4,8.8,8.8,0,0,1,27.38,24.92ZM39.86,39a14.79,14.79,0,0,0-5.5-3.46,36.44,36.44,0,0,0-13.5-2.82,28.89,28.89,0,0,0-2.93.15l-.6.06-1,.13a38.75,38.75,0,0,0-9,2.48,14.06,14.06,0,0,0-5.92,4l-.23.31A6.55,6.55,0,0,0,.51,41,6.1,6.1,0,0,0,0,43.45v5.81H41.71V43.45A6.35,6.35,0,0,0,39.86,39Zm.35,8.78H1.5V43.45A4.71,4.71,0,0,1,2.2,41l.22-.32a6.81,6.81,0,0,1,1.06-1.18,15.17,15.17,0,0,1,4.43-2.56,37.6,37.6,0,0,1,8.93-2.43c.22,0,.45-.07.67-.09l.83-.08c.84-.08,1.69-.11,2.52-.11a31,31,0,0,1,6.32.67,39.41,39.41,0,0,1,6.62,2c4.26,1.7,6.41,3.9,6.41,6.53Z"/></g></g></svg>