<svg xmlns="http://www.w3.org/2000/svg" viewBox="0 0 65.97 67.66"><defs><style>.cls-1{fill:#fff;}</style></defs><title>People</title><g id="Layer_2" data-name="Layer 2"><g id="Design2"><path class="cls-1" d="M33,67.66l-.61-.51A47.47,47.47,0,0,0,1,56H0V19.13H1c12.34,0,23.12,3.68,32,10.93,8.92-7.25,19.69-10.93,32-10.93h1V56H65A47.52,47.52,0,0,0,33.59,67.15ZM1.9,54.12A49.2,49.2,0,0,1,33,65.19,49.23,49.23,0,0,1,64.07,54.12V21c-11.77.18-22,3.88-30.48,11l-.61.51-.6-.51c-8.46-7.1-18.71-10.8-30.48-11ZM33,21A11.86,11.86,0,0,1,24.84,18a9.68,9.68,0,0,1,0-14.87,12.31,12.31,0,0,1,16.29,0,9.68,9.68,0,0,1,0,14.87h0A11.91,11.91,0,0,1,33,21ZM33,1.9a9.9,9.9,0,0,0-6.87,2.59,7.77,7.77,0,0,0,0,12A9.86,9.86,0,0,0,33,19.13a9.91,9.91,0,0,0,6.88-2.59h0a7.78,7.78,0,0,0,0-12A9.91,9.91,0,0,0,33,1.9Z"/></g></g></svg>