<svg xmlns="http://www.w3.org/2000/svg" viewBox="0 0 47.12 58.31"><defs><style>.cls-1{fill:none;stroke:#fff;stroke-miterlimit:10;stroke-width:1.71px;}</style></defs><title>Policies      </title><g id="Layer_2" data-name="Layer 2"><g id="Design2"><path class="cls-1" d="M29.27.86l17,17v34a5.27,5.27,0,0,1-1.73,3.92,5.56,5.56,0,0,1-4,1.66h-34a5.57,5.57,0,0,1-4-1.66A5.26,5.26,0,0,1,.86,51.87L1,6.44A5.35,5.35,0,0,1,2.65,2.52,5.33,5.33,0,0,1,6.57.86Zm5.58,34V29.15H12.28v5.72Zm0,11.29V40.44H12.28v5.72Zm-8.5-25.51H42L26.35,5.11Z"/></g></g></svg>