<svg xmlns="http://www.w3.org/2000/svg" viewBox="0 0 66.26 55.42"><defs><style>.cls-1{fill:none;stroke:#fff;stroke-miterlimit:10;stroke-width:1.71px;}</style></defs><title>Service Desk</title><g id="Layer_2" data-name="Layer 2"><g id="Design2"><path class="cls-1" d="M60.23,36.73a2.66,2.66,0,0,0-2.16,0A31.84,31.84,0,0,1,48,38.74a2.71,2.71,0,0,0-2.52,1.66l-3.69,8.09A42.81,42.81,0,0,1,17.5,37.43l3.69-8.09a2.77,2.77,0,0,0-.4-3,31.9,31.9,0,0,1-5.08-9,2.74,2.74,0,0,0-3.61-1.65L2.7,19.25a2.7,2.7,0,0,0-1.59,1.46,2.74,2.74,0,0,0-.06,2.16A46.85,46.85,0,0,0,26.43,50a46.75,46.75,0,0,0,37.13,1.31,2.71,2.71,0,0,0,1.6-1.45,2.77,2.77,0,0,0,0-2.17l-3.52-9.4A2.73,2.73,0,0,0,60.23,36.73Z"/><path class="cls-1" d="M54.6,11.75l3.31,1c.33.09.47.34.41.75l-.87,5.13a.59.59,0,0,1-.66.5l-3.46-.06a11.23,11.23,0,0,1-1.6,2l.74,3.36a.59.59,0,0,1-.38.72L47.19,27a.6.6,0,0,1-.76-.3l-1.64-3a9.86,9.86,0,0,1-2.5-.43l-2.57,2.33a.58.58,0,0,1-.82,0l-4-3.29a.59.59,0,0,1-.18-.84l1.82-2.95A9.58,9.58,0,0,1,36,17.35a9.28,9.28,0,0,1-.39-1.21l-3.31-1c-.33-.09-.47-.34-.41-.75l.87-5.13a.61.61,0,0,1,.66-.51l3.46.07a10.86,10.86,0,0,1,1.6-2l-.73-3.36a.59.59,0,0,1,.37-.73L43,.9a.6.6,0,0,1,.76.3l1.64,3a9.86,9.86,0,0,1,2.5.43l2.57-2.33a.59.59,0,0,1,.82,0l4,3.3a.59.59,0,0,1,.18.84L53.71,9.36a11.49,11.49,0,0,1,.5,1.17A9.81,9.81,0,0,1,54.6,11.75ZM43.22,18.09a4.55,4.55,0,0,0,6-2.26,4.39,4.39,0,0,0,.12-3.48,4.55,4.55,0,0,0-8.53,3.19A4.37,4.37,0,0,0,43.22,18.09Z"/></g></g></svg>