<svg xmlns="http://www.w3.org/2000/svg" viewBox="0 0 75.5 47.71"><defs><style>.cls-1{fill:#fff;}</style></defs><title>Timesheet</title><g id="Layer_2" data-name="Layer 2"><g id="Design2"><path class="cls-1" d="M42.3,47.71H0V0H75.5ZM1.71,46h39.7L72.22,1.71H1.71Z"/><path class="cls-1" d="M7.58,29a8.42,8.42,0,0,0,4.21,1.18c2.41,0,3.81-1.27,3.81-3.1s-1-2.67-3.43-3.62c-3-1.05-4.8-2.59-4.8-5.15,0-2.84,2.35-4.94,5.88-4.94a8.25,8.25,0,0,1,4,.89l-.64,1.91a7.33,7.33,0,0,0-3.46-.86c-2.48,0-3.43,1.48-3.43,2.73,0,1.7,1.11,2.53,3.62,3.51C16.44,22.73,18,24.22,18,26.89s-2.08,5.24-6.37,5.24A9.48,9.48,0,0,1,7,31Z"/><path class="cls-1" d="M24.16,26.13l-1.89,5.73H19.84L26,13.66h2.84l6.2,18.2h-2.5l-2-5.73Zm6-1.83-1.79-5.24c-.4-1.19-.67-2.27-.94-3.32h0c-.27,1.08-.57,2.19-.92,3.29L24.65,24.3Z"/><path class="cls-1" d="M37.74,13.88a27.2,27.2,0,0,1,4.51-.35A7.48,7.48,0,0,1,47.35,15a4.89,4.89,0,0,1,1.59,3.81,5.33,5.33,0,0,1-1.4,3.88,7.51,7.51,0,0,1-5.56,2,8.38,8.38,0,0,1-1.89-.16v7.29H37.74Zm2.35,8.77a7.6,7.6,0,0,0,1.94.19c2.84,0,4.57-1.38,4.57-3.89s-1.7-3.56-4.3-3.56a9.75,9.75,0,0,0-2.21.19Z"/></g></g></svg>